<svg id="icons" xmlns="http://www.w3.org/2000/svg" viewBox="0 0 96 96"><defs><style>.cls-1{fill:#218dbf;}.cls-2{fill:#49dbe5;}.cls-3{fill:#f3aa9b;}.cls-4{fill:#f7eade;}.cls-5{fill:#f3e1d0;}.cls-6{fill:#fbf3ec;}.cls-7{fill:none;stroke:#2b3444;stroke-linecap:round;stroke-linejoin:round;stroke-width:2px;}</style></defs><title>love-letter</title><g id="_Group_" data-name="&lt;Group&gt;"><path class="cls-1" d="M70,39v9.66L53.38,61,48,57l-5.38,4L26,48.66V13H70V39ZM57,23.74A4.77,4.77,0,0,0,52.2,19,4.819,4.819,0,0,0,48,21.45,4.819,4.819,0,0,0,43.8,19,4.77,4.77,0,0,0,39,23.74c0,6.23,6.3,8.89,9,11.26C50.7,32.63,57,29.97,57,23.74Z"/><circle class="cls-1" cx="13" cy="25" r="2"/><circle class="cls-2" cx="80" cy="18" r="3"/><path class="cls-3" d="M52.2,19A4.77,4.77,0,0,1,57,23.74c0,6.23-6.3,8.89-9,11.26-2.7-2.37-9-5.03-9-11.26A4.77,4.77,0,0,1,43.8,19,4.819,4.819,0,0,1,48,21.45,4.819,4.819,0,0,1,52.2,19Z"/><polygon class="cls-4" points="83 39 70 39 70 29.34 83 39"/><polygon class="cls-4" points="26 29.34 26 39 13 39 26 29.34"/><polygon class="cls-4" points="83 83 13 83 42.62 61 48 57 53.38 61 83 83"/><polygon class="cls-5" points="26 39 26 48.66 13 39 26 39"/><polygon class="cls-5" points="83 39 70 48.66 70 39 83 39"/><polygon class="cls-6" points="42.62 61 13 83 13 39 26 48.66 42.62 61"/><polygon class="cls-6" points="83 39 83 83 53.38 61 70 48.66 83 39"/><line class="cls-7" x1="83" y1="83" x2="83" y2="39"/><line class="cls-7" x1="13" y1="39" x2="13" y2="83"/><line class="cls-7" x1="70" y1="29.34" x2="83" y2="39"/><line class="cls-7" x1="13" y1="39" x2="26" y2="29.34"/><polyline class="cls-7" points="53.38 61 70 48.66 83 39 70 39"/><polyline class="cls-7" points="26 39 13 39 26 48.66 42.62 61"/><polygon class="cls-7" points="13 83 83 83 53.38 61 48 57 42.62 61 13 83"/><line class="cls-7" x1="60" y1="41" x2="36" y2="41"/><line class="cls-7" x1="56" y1="47" x2="36" y2="47"/><polyline class="cls-7" points="26 48.66 26 39 26 29.34 26 13 70 13 70 29.34 70 39 70 48.66"/><path class="cls-7" d="M52.2,19A4.819,4.819,0,0,0,48,21.45,4.819,4.819,0,0,0,43.8,19,4.77,4.77,0,0,0,39,23.74c0,6.23,6.3,8.89,9,11.26,2.7-2.37,9-5.03,9-11.26A4.77,4.77,0,0,0,52.2,19Z"/><circle class="cls-7" cx="13" cy="25" r="2"/><circle class="cls-7" cx="80" cy="18" r="3"/></g></svg>